<?xml version="1.0" encoding="UTF-8" standalone="no"?>
<svg
   version="1.1"
   id="Layer_1"
   x="0px"
   y="0px"
   width="100%"
   viewBox="0 0 2048 2048"
   enable-background="new 0 0 2048 2048"
   xml:space="preserve"
   sodipodi:docname="logo_blue.svg"
   inkscape:version="1.4.3 (0d15f75, 2025-12-25)"
   xmlns:inkscape="http://www.inkscape.org/namespaces/inkscape"
   xmlns:sodipodi="http://sodipodi.sourceforge.net/DTD/sodipodi-0.dtd"
   xmlns="http://www.w3.org/2000/svg"
   xmlns:svg="http://www.w3.org/2000/svg"><defs
   id="defs19" /><sodipodi:namedview
   id="namedview19"
   pagecolor="#505050"
   bordercolor="#ffffff"
   borderopacity="1"
   inkscape:showpageshadow="0"
   inkscape:pageopacity="0"
   inkscape:pagecheckerboard="1"
   inkscape:deskcolor="#505050"
   inkscape:zoom="0.32"
   inkscape:cx="939.0625"
   inkscape:cy="1101.5625"
   inkscape:window-width="1512"
   inkscape:window-height="814"
   inkscape:window-x="0"
   inkscape:window-y="38"
   inkscape:window-maximized="0"
   inkscape:current-layer="Layer_1" />
<path
   fill="#000000"
   opacity="1"
   stroke="none"
   d="m 224.07408,798.49738 c 0.28601,0.14819 0.57202,0.29638 1.46663,0.78149 6.7444,3.5199 13.16872,7.99188 20.29143,10.38666 24.31599,8.17566 48.63283,16.54059 73.40181,23.13311 39.16263,10.42365 78.60183,19.85968 118.09536,28.97101 27.70594,6.39173 55.64725,11.8064 83.57493,17.18207 28.08227,5.4054 56.26178,10.31323 84.42858,15.26917 23.112,4.06652 46.2685,7.88024 69.40375,11.815 3.37183,0.57348 6.73505,1.19757 10.10218,1.79822 -23.7818,6.53863 -47.53132,11.75323 -71.04358,17.87829 -31.87183,8.3028 -63.66913,16.93347 -95.3014,26.10315 -35.06802,10.16571 -69.48703,22.31378 -101.39004,40.35431 -12.01099,6.79193 -22.92709,15.51994 -34.85504,23.87424 -5.41986,4.1593 -11.51422,7.6908 -16.1044,12.6224 -7.21689,7.7537 -11.38111,17.2499 -6.1782,27.7102 5.1807,10.4155 11.26835,20.4033 17.33039,30.3519 10.39517,17.06 21.18762,33.8774 31.61301,50.9192 10.58868,17.3086 21.0541,34.6956 31.35266,52.1782 9.39715,15.9527 18.51593,32.0695 27.72442,48.1327 6.70358,11.6938 13.05106,23.604 20.10959,35.0782 7.52969,12.2397 16.30515,23.4225 30.88895,28.0268 0,0 -0.0842,-0.037 0.0688,0.4472 0.28705,0.1386 0.5741,0.2773 1.5979,0.5857 21.37208,8.3813 44.10663,9.7799 66.49958,12.8447 10.31592,1.4118 20.71472,2.2242 31.08026,3.2652 12.82623,1.2883 25.65228,2.5829 38.48749,3.7767 8.73205,0.8117 17.48346,1.414 26.21979,2.1829 14.1632,1.2465 28.31665,2.6043 42.48272,3.816 9.40052,0.8039 18.82129,1.3681 28.22302,2.1591 14.66407,1.2337 29.318,2.5874 43.97937,3.8543 8.73877,0.7551 17.4892,1.378 26.22419,2.1725 13.49829,1.2276 26.98687,2.5604 40.48126,3.8305 7.90619,0.7443 15.83136,1.3151 23.72003,2.2102 13.12787,1.4898 26.22681,3.2331 39.34998,4.766 12.47674,1.4574 24.97424,2.7379 37.45105,4.1947 3.39324,0.3963 6.74505,1.1479 9.49878,1.6286 -19.96375,13.8347 -40.08582,27.1789 -59.55658,41.414 -28.52576,20.8551 -51.42255,46.7647 -67.14264,78.6454 -1.79377,3.6377 -2.85755,7.6353 -4.47736,12.1745 -4.17371,11.6944 -8.34735,23.3889 -12.8678,36.0549 H 666.70746 c 90.8009,155.6468 181.13489,310.4935 272.03381,466.3086 91.05043,-156.0339 181.36003,-310.7981 272.41363,-466.8374 -9.3446,0.5488 -16.9348,1.1311 -24.5361,1.4094 -11.9429,0.4371 -23.8924,0.6993 -35.8404,0.9802 -15.7696,0.3708 -31.5391,0.7849 -47.3111,0.9981 -12.9976,0.1755 -25.9988,0.086 -38.9983,0.1125 -1.7628,0 -3.5256,4e-4 -6.1588,4e-4 0.8381,-3.1831 1.4505,-5.5089 2.7648,-7.9871 1.401,-3.5854 2.6094,-7.2612 4.2432,-10.7374 3.3914,-7.2163 7.0085,-14.3268 11.0461,-21.9258 7.971,-7.5074 17.4318,-12.6034 27.5622,-16.3907 16.0253,-5.9917 32.6583,-9.6082 49.5755,-12.0738 14.8369,-2.1624 29.6002,-4.8468 44.4552,-6.8638 12.4929,-1.6963 25.0798,-2.6893 37.6095,-4.1297 13.6453,-1.5688 27.3306,-2.9252 40.8914,-5.0555 13.7349,-2.1577 26.3345,-7.0333 33.9267,-19.805 7.0578,-11.8726 13.9382,-23.8606 20.5444,-35.9897 8.5575,-15.7116 16.7303,-31.6322 25.1324,-47.4288 14.1344,-26.5736 28.319,-53.1205 42.768,-79.6586 0.2081,-0.1101 0.2657,-0.2734 0.5486,-0.9417 0.1805,-0.3254 0.3611,-0.6508 0.8642,-1.661 4.9117,-10.4409 2.8156,-20.4498 -5.8257,-29.5387 -13.1261,-13.8061 -29.5959,-22.2896 -46.7933,-29.5515 -20.5213,-8.6655 -41.8923,-14.5372 -63.8188,-18.3504 -13.1443,-2.2859 -26.3343,-4.3102 -39.9499,-6.5246 13.831,-2.8724 27.3352,-5.2899 40.6431,-8.5177 32.3273,-7.8406 64.5684,-16.0378 96.8184,-24.193 1.3873,-0.3507 2.5183,-1.7152 4.5998,-2.7458 0.999,-0.014 2.0552,0.1804 2.9889,-0.074 25.7079,-7.0039 50.9638,-15.3179 75.1912,-26.5053 14.2741,-6.5913 27.0634,-15.3993 39.5522,-25.0099 12.3709,-9.5197 22.0983,-21.1398 30.2069,-33.94 10.8571,-17.1386 20.5076,-35.0679 30.1619,-52.93575 13.6145,-25.19726 26.7402,-50.65832 40.1084,-75.98895 9.267,-17.55981 18.6141,-35.07733 27.883,-52.63623 13.6756,-25.90716 27.3096,-51.83636 40.969,-77.75207 5.9938,-11.37177 12.0922,-22.6894 17.9862,-34.11249 5.1379,-9.95783 10.0552,-20.02936 14.9784,-30.06494 0,0 -0.017,0.091 0.3901,-0.0643 0.3013,-0.12982 0.4555,-0.35871 0.7983,-1.41645 4.0824,-8.25195 1.2164,-15.06341 -4.432,-21.28302 -7.6246,-8.39544 -17.2368,-14.10492 -27.2516,-18.89544 -27.0973,-12.96167 -55.1332,-23.46582 -84.0552,-31.74201 -41.7008,-11.93304 -83.9624,-21.36743 -126.515,-29.58337 -24.4966,-4.72968 -49.0256,-9.30066 -73.5836,-13.69946 -14.9633,-2.68018 -30.0138,-4.86982 -45.0166,-7.3313 -10.2852,-1.68738 -20.5558,-3.46332 -31.8442,-5.37055 21.3503,-3.27051 41.5969,-6.36676 61.8419,-9.47424 28.7549,-4.41382 57.5425,-8.62878 86.2545,-13.30701 35.3995,-5.76794 70.7781,-11.68762 106.088,-17.97754 37.592,-6.69659 75.114,-13.79528 112.6114,-21.00457 5.4614,-1.04999 10.6169,-3.69074 16.4451,-5.90332 0.7868,-0.19532 1.5734,-0.39063 2.7968,-0.18116 0.9162,-0.44506 1.8325,-0.89013 3.3785,-1.54016 1.064,-0.26752 2.1278,-0.53509 3.7269,-0.43219 1.8199,-0.57916 3.6397,-1.15832 5.881,-1.91382 0.3444,-0.0765 0.5357,-0.2901 1.3041,-0.72058 1.3625,-0.46576 2.7251,-0.93146 4.8833,-1.27197 11.4547,-3.60052 22.9095,-7.20111 35.1372,-10.91821 1.8295,-0.64923 3.656,-1.30634 5.4888,-1.94632 10.8451,-3.78739 22.1589,-6.60324 32.4367,-11.56491 19.0767,-9.20935 33.679,-24.07367 45.1716,-41.58548 12.286,-18.72095 23.7338,-38.00519 35.1616,-57.27243 11.19,-18.86664 21.9398,-37.99558 32.7973,-57.05802 8.6014,-15.10098 17.0264,-30.30227 25.6148,-45.41058 10.6774,-18.78299 21.4657,-37.50281 32.1615,-56.27532 7.4808,-13.12985 14.9043,-26.29248 22.3226,-39.45777 10.0457,-17.82796 19.8748,-35.78096 30.1416,-53.48034 11.1204,-19.17063 21.4339,-38.68713 26.8849,-60.314662 1.4174,-5.62381 1.3246,-11.628296 2.0123,-18.218521 -0.182,-0.801506 -0.1998,-1.689736 -0.5706,-2.391571 -6.336,-11.993298 -16.6669,-17.184147 -29.873,-18.012871 -14.6471,-0.919144 -28.7112,2.083629 -42.7036,5.659099 -21.0039,5.367138 -41.8408,11.439183 -62.9606,16.289608 -32.2294,7.401886 -64.5969,14.22548 -96.9874,20.897347 -24.4479,5.035805 -48.9949,9.609081 -73.5515,14.093021 -21.7903,3.97882 -43.6548,7.55066 -65.4863,11.30315 -19.0557,3.27535 -38.0993,6.62324 -57.1698,9.80907 -21.0349,3.51399 -42.0969,6.86511 -63.1425,10.31509 -15.4928,2.53969 -30.9668,5.1958 -46.4697,7.67093 -19.7506,3.15329 -39.5294,6.12839 -59.2819,9.26981 -17.9509,2.85493 -35.8753,5.87727 -53.8253,8.73872 -19.7497,3.14835 -39.5229,6.14993 -59.2717,9.30466 -15.6657,2.5025 -31.3045,5.17181 -46.9647,7.70822 -17.4567,2.82733 -34.934,5.5276 -52.3838,8.39522 -16.9618,2.78741 -33.8976,5.73252 -50.8498,8.57971 -20.7028,3.47716 -41.4213,6.862 -62.1136,10.4015 -22.1542,3.78957 -44.2788,7.75104 -66.4285,11.56708 -24.1075,4.15337 -48.2483,8.11755 -72.3389,12.36621 -21.15753,3.73135 -42.24481,7.86075 -63.40069,11.60184 -33.04383,5.84321 -66.14344,11.37207 -99.17396,17.28785 -28.14501,5.04078 -56.21453,10.50199 -84.33825,15.66395 -37.23499,6.83432 -74.50464,13.48108 -111.73242,20.35409 -29.90979,5.52191 -59.78992,11.20639 -89.66431,16.9176 -31.17777,5.96042 -62.35873,11.90943 -93.49045,18.10398 -28.70868,5.7124 -57.38571,11.59378 -86.0199,17.66845 -48.69043,10.32953 -97.53649,20.02802 -145.94606,31.55078 -51.18853,12.18424 -102.68386,23.78303 -151.015888,45.54862 -8.822673,3.97317 -17.218513,8.89414 -26.45952,13.60754 -9.06324,3.97324 -17.809382,8.40522 -24.512388,16.02082 -2.926862,3.32537 -4.001926,9.32522 -1.942099,12.70678 7.348153,12.06327 14.738564,24.10074 22.09778,36.15723 11.418602,18.70694 22.818711,37.42514 34.237816,56.13181 12.607014,20.65271 25.23457,41.29278 37.838459,61.94738 12.51817,20.51422 25.00049,41.05024 37.53067,61.55713 13.12109,21.47388 25.93207,43.14917 39.57048,64.2901 6.78688,10.52033 15.31169,19.90387 22.69766,30.05817 6.34297,8.7204 14.82343,14.59039 24.10153,19.57458 0,0 -0.0815,-0.0421 0.0983,0.47376 0.30215,0.18573 0.60429,0.3714 0.90521,0.47662 0,0 -0.0806,0.002 0.0907,0.48072 z"
   id="path1"
   sodipodi:nodetypes="cccssssscssscssssssscccsscssssssssscsscccccssssccsccssssssscccssscssccsssssssscccsssssscssssccccccccssssssssssccssssssssssssssssssssssssssscssssssssccccc" />
<path
   fill="#AAAAAA"
   opacity="1.000000"
   stroke="none"
   d=" M1707.040283,525.392029   C1705.976318,525.659607 1704.912476,525.927185 1703.187988,526.160645   C1701.696045,526.527710 1700.864746,526.928894 1700.033325,527.330078   C1699.246582,527.525391 1698.459961,527.720703 1696.999268,527.887939   C1695.331909,527.942078 1694.324951,527.946655 1693.347046,528.117737   C1626.421143,539.828552 1559.597656,552.165588 1492.545044,563.098145   C1429.107178,573.441406 1365.480957,582.676086 1301.842285,591.727722   C1236.739380,600.987549 1171.511719,609.367737 1106.355103,618.253906   C1049.449341,626.014832 992.519470,633.619690 935.685852,641.882690   C868.285645,651.681885 800.853455,661.363342 733.660156,672.458862   C650.361877,686.213806 567.144775,700.570251 484.174805,716.168091   C418.069733,728.595337 352.306366,742.899231 286.571381,757.197754   C268.435181,761.142700 250.838806,767.746399 233.224823,773.799561   C228.405106,775.455933 224.121002,779.194641 220.150955,782.625549   C217.242920,785.138733 217.032806,788.608459 219.952911,791.893799   C221.260651,793.365234 221.958755,795.378418 222.933502,797.145752   C213.701859,792.082092 205.221405,786.212097 198.878433,777.491699   C191.492462,767.337402 182.967651,757.953857 176.180771,747.433533   C162.542358,726.292603 149.731384,704.617310 136.610291,683.143433   C124.080109,662.636536 111.597794,642.100525 99.079620,621.586304   C86.475731,600.931702 73.848175,580.291626 61.241161,559.638916   C49.822056,540.932251 38.421947,522.214050 27.003345,503.507111   C19.644129,491.450623 12.253718,479.413147 4.905565,467.349884   C2.845738,463.968323 3.920802,457.968475 6.847664,454.643097   C13.550670,447.027496 22.296812,442.595520 31.953514,438.661499   C40.755894,435.482422 48.891361,432.059723 57.185730,429.079193   C108.700981,410.567352 161.728546,397.399384 214.959778,385.074585   C366.234680,350.049408 518.890076,321.950348 671.788269,295.197601   C769.357361,278.125824 867.131714,262.221191 964.852722,246.026855   C1001.257751,239.993805 1037.753296,234.495651 1074.242554,228.984970   C1123.625610,221.527039 1173.027710,214.192688 1222.448608,206.990570   C1267.228394,200.464828 1312.043579,194.181061 1356.844971,187.803528   C1377.764282,184.825638 1398.690430,181.894943 1419.609131,178.913467   C1463.941162,172.595016 1508.289062,166.384354 1552.595703,159.892624   C1599.384155,153.037262 1646.172363,146.160675 1692.884399,138.809387   C1725.771362,133.633835 1758.583008,127.935120 1791.336914,121.968346   C1865.725098,108.417076 1940.128296,94.915756 2013.038696,74.412331   C2023.385620,71.502693 2033.797485,67.997505 2044.887817,69.114151   C2044.286987,74.943802 2044.379761,80.948288 2042.962402,86.572098   C2037.511353,108.199631 2027.197876,127.716125 2016.077515,146.886765   C2005.810669,164.586136 1995.981567,182.539139 1985.935913,200.367096   C1978.517578,213.532394 1971.094116,226.695023 1963.613281,239.824875   C1952.917480,258.597382 1942.129150,277.317200 1931.451782,296.100189   C1922.863403,311.208496 1914.438354,326.409790 1905.837036,341.510773   C1894.979492,360.573212 1884.229736,379.702148 1873.039673,398.568787   C1861.611938,417.836029 1850.164062,437.120270 1837.878052,455.841217   C1826.385498,473.353027 1811.783203,488.217346 1792.706543,497.426697   C1782.428711,502.388367 1771.114868,505.204224 1760.269775,508.991608   C1758.437012,509.631592 1756.610474,510.288696 1754.107910,510.876953   C1742.520264,513.949341 1731.601074,517.065918 1720.702881,520.255005   C1720.000854,520.460449 1719.462646,521.225891 1718.848145,521.730835   C1717.485596,522.196655 1716.123047,522.662354 1714.261963,522.965820   C1713.038086,523.020325 1712.312866,523.237183 1711.228638,523.536743   C1709.593262,524.210327 1708.316772,524.801208 1707.040283,525.392029  z"
   id="path2"
   style="fill:#0d47a1;fill-opacity:1" />
<path
   fill="#AAAAAA"
   opacity="1.000000"
   stroke="none"
   d=" M518.944153,1301.146484   C504.401306,1296.459351 495.625854,1285.276611 488.096161,1273.036865   C481.037628,1261.562744 474.690155,1249.652466 467.986572,1237.958740   C458.778076,1221.895508 449.659302,1205.778687 440.262146,1189.826050   C429.963593,1172.343384 419.498169,1154.956421 408.909485,1137.647827   C398.484100,1120.605957 387.691650,1103.788574 377.296478,1086.728638   C371.234436,1076.780029 365.146790,1066.792236 359.966095,1056.376709   C354.763184,1045.916382 358.927399,1036.420166 366.144287,1028.666504   C370.734467,1023.734924 376.828827,1020.203430 382.862091,1015.867432   C384.697296,1015.185913 385.929321,1014.704346 387.139313,1014.172668   C400.851044,1008.147827 414.274689,1001.332458 428.319183,996.223511   C481.947754,976.714844 537.334106,963.291809 592.737793,950.046814   C697.719116,924.949890 803.412720,903.157776 909.510315,883.404236   C997.093689,867.097778 1084.807983,851.460388 1172.606079,836.350708   C1246.762451,823.588684 1321.141724,812.125793 1395.386108,799.868774   C1450.426392,790.782166 1505.460815,781.640076 1560.398071,771.956421   C1595.823853,765.712036 1631.146606,758.715820 1665.311523,747.095337   C1679.516357,742.263977 1693.665161,737.081299 1704.234131,725.544739   C1704.601196,725.144165 1705.423462,725.160706 1706.033569,724.982788   C1701.018921,735.004150 1696.101562,745.075684 1690.963745,755.033508   C1685.069702,766.456604 1678.971313,777.774231 1672.977539,789.145996   C1659.318115,815.061707 1645.684082,840.990906 1632.008545,866.898071   C1622.739624,884.456970 1613.392456,901.974487 1604.125488,919.534302   C1590.757324,944.864929 1577.631592,970.325989 1564.017090,995.523254   C1554.362793,1013.391052 1544.712280,1031.320435 1533.855225,1048.458984   C1525.746582,1061.259155 1516.019165,1072.879272 1503.648315,1082.399048   C1491.159546,1092.009644 1478.370239,1100.817627 1464.096069,1107.408936   C1439.868652,1118.596313 1414.612793,1126.910278 1388.904907,1133.914185   C1387.971191,1134.168701 1386.915039,1133.973877 1385.114502,1134.054199   C1382.909302,1134.622925 1381.539062,1135.266724 1380.097046,1135.607910   C1351.415161,1142.391602 1322.857666,1149.777710 1294.013184,1155.784668   C1176.752686,1180.204468 1058.227539,1196.918945 939.630249,1213.138550   C909.791626,1217.219238 879.931335,1221.144165 850.106323,1225.321655   C803.958069,1231.785645 757.794312,1238.155518 711.706116,1245.028198   C663.777161,1252.175415 615.894165,1259.807983 568.974548,1272.157471   C553.430420,1276.248657 538.247559,1281.967529 523.287720,1287.918091   C515.608948,1290.972534 515.620789,1293.127075 519.177124,1300.230835   C519.283752,1300.443848 519.029907,1300.837158 518.944153,1301.146484  z"
   id="path3"
   style="fill:#1565c0;fill-opacity:1" />
<path
   fill="#AAAAAA"
   opacity="1.000000"
   stroke="none"
   d=" M1398.544189,1255.992676   C1384.380615,1282.550781 1370.196045,1309.097656 1356.061646,1335.671265   C1347.659546,1351.467896 1339.486694,1367.388550 1330.929199,1383.100098   C1324.322998,1395.229248 1317.442627,1407.217163 1310.384766,1419.089844   C1302.792603,1431.861450 1290.192993,1436.737061 1276.458130,1438.894775   C1262.897339,1441.025146 1249.212036,1442.381470 1235.566650,1443.950317   C1223.036987,1445.390747 1210.450073,1446.383667 1197.957153,1448.079956   C1183.102173,1450.097046 1168.338867,1452.781372 1153.501953,1454.943848   C1136.584839,1457.409424 1119.951782,1461.025879 1103.926514,1467.017578   C1093.796143,1470.804932 1084.335327,1475.900879 1075.771973,1483.677002   C1072.308472,1487.325562 1068.967285,1490.416016 1066.669189,1494.148926   C1062.554810,1500.832153 1058.041260,1507.614624 1060.373169,1516.223877   C1059.760742,1518.549683 1059.148315,1520.875488 1058.310181,1524.058594   C1060.943359,1524.058594 1062.706177,1524.061768 1064.468994,1524.058228   C1077.468506,1524.031494 1090.469727,1524.121216 1103.467285,1523.945679   C1119.239258,1523.732544 1135.008789,1523.318359 1150.778442,1522.947632   C1162.726440,1522.666748 1174.675903,1522.404541 1186.618774,1521.967407   C1194.220093,1521.689087 1201.810303,1521.106812 1211.154907,1520.557983   C1120.101318,1676.597290 1029.791748,1831.361450 938.741272,1987.395386   C847.842346,1831.580322 757.508362,1676.733643 666.707458,1521.086792   C721.835205,1521.086792 776.488770,1521.086792 830.304993,1521.086792   C834.825439,1508.420776 838.999084,1496.726318 843.589478,1484.538818   C845.348145,1481.563843 846.730896,1479.102783 848.026184,1476.596680   C867.232178,1439.436646 894.896484,1410.588257 931.826233,1390.650879   C961.231262,1374.776123 991.915527,1361.901611 1023.491699,1351.151489   C1098.248657,1325.700439 1174.942139,1308.098267 1252.750488,1295.070801   C1285.920044,1289.517212 1319.105103,1284.039429 1352.204834,1278.091675   C1368.502808,1275.163208 1383.577271,1269.127930 1395.572876,1257.010864   C1396.232666,1256.344238 1397.538940,1256.317383 1398.544189,1255.992676  z"
   id="path4"
   style="fill:#1976d2;fill-opacity:1" />
<path
   fill="#484848"
   opacity="1.000000"
   stroke="none"
   d=" M1705.987793,724.975708   C1705.423462,725.160706 1704.601196,725.144165 1704.234131,725.544739   C1693.665161,737.081299 1679.516357,742.263977 1665.311523,747.095337   C1631.146606,758.715820 1595.823853,765.712036 1560.398071,771.956421   C1505.460815,781.640076 1450.426392,790.782166 1395.386108,799.868774   C1321.141724,812.125793 1246.762451,823.588684 1172.606079,836.350708   C1084.807983,851.460388 997.093689,867.097778 909.510315,883.404236   C803.412720,903.157776 697.719116,924.949890 592.737793,950.046814   C537.334106,963.291809 481.947754,976.714844 428.319183,996.223511   C414.274689,1001.332458 400.851044,1008.147827 387.139313,1014.172668   C385.929321,1014.704346 384.697296,1015.185913 383.118469,1015.613037   C394.176636,1007.689819 405.092743,998.961792 417.103729,992.169861   C449.006744,974.129333 483.425751,961.981262 518.493774,951.815552   C550.126038,942.645874 581.923340,934.015198 613.795166,925.712402   C637.307434,919.587341 661.056946,914.372742 684.838745,907.834106   C681.471619,907.233459 678.108398,906.609375 674.736572,906.035889   C651.601318,902.101135 628.444824,898.287415 605.332825,894.220886   C577.166016,889.264954 548.986511,884.357117 520.904236,878.951721   C492.976562,873.576050 465.035248,868.161377 437.329315,861.769653   C397.835785,852.658325 358.396576,843.222290 319.233948,832.798645   C294.464966,826.206116 270.148132,817.841187 245.832138,809.665527   C238.709427,807.270752 232.285110,802.798767 225.219910,798.820190   C224.567047,798.247192 224.234955,798.132812 223.902863,798.018433   C223.902863,798.018494 223.983429,798.016663 224.009827,797.720154   C223.656982,797.290466 223.277740,797.157349 222.898499,797.024170   C222.898499,797.024170 222.979965,797.066284 222.956726,797.106018   C221.958755,795.378418 221.260651,793.365234 219.952911,791.893799   C217.032806,788.608459 217.242920,785.138733 220.150955,782.625549   C224.121002,779.194641 228.405106,775.455933 233.224823,773.799561   C250.838806,767.746399 268.435181,761.142700 286.571381,757.197754   C352.306366,742.899231 418.069733,728.595337 484.174805,716.168091   C567.144775,700.570251 650.361877,686.213806 733.660156,672.458862   C800.853455,661.363342 868.285645,651.681885 935.685852,641.882690   C992.519470,633.619690 1049.449341,626.014832 1106.355103,618.253906   C1171.511719,609.367737 1236.739380,600.987549 1301.842285,591.727722   C1365.480957,582.676086 1429.107178,573.441406 1492.545044,563.098145   C1559.597656,552.165588 1626.421143,539.828552 1693.347046,528.117737   C1694.324951,527.946655 1695.331909,527.942078 1696.733643,528.041870   C1691.844971,530.128601 1686.689453,532.769348 1681.228149,533.819336   C1643.730713,541.028625 1606.208740,548.127319 1568.616699,554.823914   C1533.306763,561.113831 1497.928223,567.033508 1462.528687,572.801453   C1433.816650,577.479675 1405.029053,581.694641 1376.274170,586.108459   C1356.029175,589.215942 1335.782593,592.312195 1314.432251,595.582703   C1325.720703,597.489929 1335.991333,599.265869 1346.276489,600.953247   C1361.279297,603.414734 1376.329834,605.604370 1391.293091,608.284546   C1415.851074,612.683350 1440.380127,617.254333 1464.876709,621.984009   C1507.429321,630.199951 1549.690918,639.634338 1591.391724,651.567383   C1620.313721,659.843567 1648.349609,670.347717 1675.446899,683.309387   C1685.461670,688.099915 1695.073853,693.809387 1702.698486,702.204834   C1708.346924,708.424438 1711.212891,715.235901 1706.795410,723.972778   C1706.384155,724.749023 1706.205811,724.949646 1705.925171,725.059570   C1705.925171,725.059570 1705.942139,724.968567 1705.987793,724.975708  M927.587158,860.100159   C964.605896,853.258972 1001.584900,846.193054 1038.651855,839.624146   C1111.802368,826.660706 1185.040771,814.190918 1258.170898,801.115051   C1348.516724,784.961060 1438.826660,768.599548 1529.072510,751.897583   C1558.749268,746.405334 1588.076904,739.086914 1615.768677,726.708862   C1623.407227,723.294495 1630.718018,718.560181 1637.155151,713.201416   C1644.330322,707.228210 1644.078369,699.578918 1637.943848,692.497253   C1636.536011,690.871826 1635.032104,689.106995 1633.190430,688.116333   C1622.228149,682.219177 1611.574097,675.447510 1600.040405,670.968079   C1559.971436,655.406006 1518.111572,645.982422 1476.002930,638.234131   C1412.125488,626.480225 1348.009277,616.019897 1283.971069,605.148743   C1275.633545,603.733337 1266.938354,601.419373 1258.779907,602.452332   C1213.349854,608.204224 1168.030640,614.832764 1122.680664,621.213623   C1071.723389,628.383484 1020.735901,635.351013 969.830261,642.871826   C898.327271,653.435791 826.697388,663.315430 755.463989,675.490173   C638.734985,695.440796 522.197876,716.551880 405.755310,738.120789   C363.199097,746.003418 321.137787,756.562805 278.869507,765.985352   C275.565979,766.721741 272.410889,768.123901 268.048187,769.602539   C270.383453,771.309387 271.548553,772.484741 272.955872,773.139221   C286.228546,779.311707 299.233521,786.217224 312.900482,791.356079   C360.540466,809.269104 409.650696,822.435730 458.926361,834.912720   C552.484497,858.602234 647.024536,877.709351 741.975098,894.845947   C745.033325,895.397888 748.347107,895.977966 751.312134,895.389038   C809.807861,883.769653 868.269592,871.979004 927.587158,860.100159  z"
   id="path5"
   style="fill:#1e88e5;fill-opacity:1" />
<path
   fill="#494949"
   opacity="1.000000"
   stroke="none"
   d=" M2044.931274,68.733864   C2033.797485,67.997505 2023.385620,71.502693 2013.038696,74.412331   C1940.128296,94.915756 1865.725098,108.417076 1791.336914,121.968346   C1758.583008,127.935120 1725.771362,133.633835 1692.884399,138.809387   C1646.172363,146.160675 1599.384155,153.037262 1552.595703,159.892624   C1508.289062,166.384354 1463.941162,172.595016 1419.609131,178.913467   C1398.690430,181.894943 1377.764282,184.825638 1356.844971,187.803528   C1312.043579,194.181061 1267.228394,200.464828 1222.448608,206.990570   C1173.027710,214.192688 1123.625610,221.527039 1074.242554,228.984970   C1037.753296,234.495651 1001.257751,239.993805 964.852722,246.026855   C867.131714,262.221191 769.357361,278.125824 671.788269,295.197601   C518.890076,321.950348 366.234680,350.049408 214.959778,385.074585   C161.728546,397.399384 108.700981,410.567352 57.185730,429.079193   C48.891361,432.059723 40.755894,435.482422 32.277580,438.546509   C40.601059,433.908875 48.996899,428.987915 57.819572,425.014740   C106.151596,403.249146 157.646927,391.650360 208.835464,379.466125   C257.245026,367.943359 306.091095,358.244873 354.781525,347.915344   C383.415710,341.840668 412.092743,335.959290 440.801422,330.246887   C471.933136,324.052338 503.114105,318.103333 534.291870,312.142914   C564.166260,306.431702 594.046387,300.747223 623.956177,295.225311   C661.183960,288.352295 698.453613,281.705536 735.688599,274.871216   C763.812317,269.709259 791.881836,264.248047 820.026855,259.207275   C853.057373,253.291489 886.156982,247.762634 919.200806,241.919418   C940.356689,238.178329 961.443970,234.048935 982.601501,230.317581   C1006.692139,226.068924 1030.832886,222.104736 1054.940430,217.951370   C1077.090088,214.135330 1099.214722,210.173859 1121.368896,206.384293   C1142.061157,202.844788 1162.779663,199.459946 1183.482544,195.982788   C1200.434692,193.135605 1217.370483,190.190491 1234.332275,187.403076   C1251.782104,184.535461 1269.259399,181.835190 1286.716064,179.007858   C1302.376343,176.471451 1318.015137,173.802139 1333.680786,171.299637   C1353.429565,168.144913 1373.202759,165.143326 1392.952515,161.994980   C1410.902466,159.133530 1428.826904,156.111191 1446.777832,153.256256   C1466.530273,150.114838 1486.309082,147.139740 1506.059692,143.986450   C1521.562622,141.511322 1537.036621,138.855209 1552.529419,136.315521   C1573.574951,132.865540 1594.636963,129.514420 1615.671875,126.000427   C1634.742432,122.814598 1653.786011,119.466705 1672.841675,116.191360   C1694.673218,112.438866 1716.537720,108.867027 1738.328003,104.888214   C1762.884644,100.404266 1787.431641,95.830994 1811.879517,90.795189   C1844.270020,84.123322 1876.637451,77.299728 1908.866943,69.897842   C1929.986694,65.047417 1950.823608,58.975372 1971.827515,53.608234   C1985.819946,50.032764 1999.884033,47.029991 2014.531128,47.949135   C2027.737183,48.777859 2038.068115,53.968708 2044.404053,65.962006   C2044.774902,66.663841 2044.792725,67.552071 2044.931274,68.733864  z"
   id="path6"
   style="fill:#1e88e5;fill-opacity:1" />
<path
   fill="#484848"
   opacity="1.000000"
   stroke="none"
   d=" M1398.686890,1256.002686   C1397.538940,1256.317383 1396.232666,1256.344238 1395.572876,1257.010864   C1383.577271,1269.127930 1368.502808,1275.163208 1352.204834,1278.091675   C1319.105103,1284.039429 1285.920044,1289.517212 1252.750488,1295.070801   C1174.942139,1308.098267 1098.248657,1325.700439 1023.491699,1351.151489   C991.915527,1361.901611 961.231262,1374.776123 931.826233,1390.650879   C894.896484,1410.588257 867.232178,1439.436646 848.026184,1476.596680   C846.730896,1479.102783 845.348145,1481.563843 843.698242,1484.184570   C844.792603,1480.492676 845.856384,1476.495117 847.650146,1472.857422   C863.370239,1440.976685 886.267029,1415.067139 914.792786,1394.212036   C934.263550,1379.976929 954.385620,1366.632690 974.349365,1352.797974   C971.595642,1352.317261 968.243835,1351.565674 964.850586,1351.169434   C952.373779,1349.712646 939.876282,1348.432129 927.399536,1346.974731   C914.276367,1345.441772 901.177429,1343.698486 888.049561,1342.208740   C880.160889,1341.313599 872.235718,1340.742798 864.329529,1339.998535   C850.835144,1338.728394 837.346558,1337.395630 823.848267,1336.167969   C815.113281,1335.373535 806.362854,1334.750610 797.624084,1333.995483   C782.962708,1332.728638 768.308777,1331.374878 753.644714,1330.141235   C744.242981,1329.350220 734.822205,1328.786011 725.421692,1327.982056   C711.255615,1326.770386 697.102173,1325.412598 682.938965,1324.166138   C674.202637,1323.397217 665.451233,1322.794922 656.719177,1321.983154   C643.883972,1320.789429 631.057922,1319.494751 618.231689,1318.206543   C607.866150,1317.165527 597.467346,1316.353149 587.151428,1314.941284   C564.758484,1311.876465 542.023926,1310.477905 520.260376,1301.723877   C519.546204,1301.242920 519.223572,1301.134521 518.900940,1301.026245   C518.900940,1301.026245 518.985107,1301.063721 518.964600,1301.105103   C519.029907,1300.837158 519.283752,1300.443848 519.177124,1300.230835   C515.620789,1293.127075 515.608948,1290.972534 523.287720,1287.918091   C538.247559,1281.967529 553.430420,1276.248657 568.974548,1272.157471   C615.894165,1259.807983 663.777161,1252.175415 711.706116,1245.028198   C757.794312,1238.155518 803.958069,1231.785645 850.106323,1225.321655   C879.931335,1221.144165 909.791626,1217.219238 939.630249,1213.138550   C1058.227539,1196.918945 1176.752686,1180.204468 1294.013184,1155.784668   C1322.857666,1149.777710 1351.415161,1142.391602 1380.097046,1135.607910   C1381.539062,1135.266724 1382.909302,1134.622925 1384.698975,1134.123291   C1383.834473,1135.018921 1382.703491,1136.383423 1381.316162,1136.734131   C1349.066162,1144.889282 1316.825073,1153.086548 1284.497803,1160.927124   C1271.189941,1164.154907 1257.685669,1166.572388 1243.854736,1169.444824   C1257.470337,1171.659180 1270.660278,1173.683472 1283.804565,1175.969360   C1305.731079,1179.782593 1327.102051,1185.654297 1347.623413,1194.319824   C1364.820801,1201.581665 1381.290649,1210.065186 1394.416748,1223.871338   C1403.057983,1232.960205 1405.154053,1242.969116 1399.782471,1253.855713   C1399.215942,1254.708618 1399.109253,1255.115723 1399.002686,1255.522827   C1399.095337,1255.739258 1399.037720,1255.902588 1398.686890,1256.002686  M1012.606323,1337.161377   C1017.184143,1335.158081 1021.716797,1333.043213 1026.346802,1331.168701   C1080.805298,1309.118408 1136.763672,1291.640991 1193.621704,1277.056763   C1229.120361,1267.951172 1264.823730,1259.643066 1300.445923,1251.020752   C1310.555786,1248.573730 1320.186523,1245.142456 1328.902832,1239.242676   C1343.467285,1229.384277 1344.023560,1218.812500 1329.173340,1209.443115   C1320.394531,1203.904297 1310.626587,1199.519531 1300.774414,1196.173706   C1271.751343,1186.317383 1241.531738,1182.104126 1211.168823,1178.945679   C1204.739014,1178.276855 1198.082397,1176.985474 1191.824219,1177.929443   C1155.269043,1183.442749 1118.854004,1189.887573 1082.291260,1195.346191   C1034.366577,1202.500732 986.369080,1209.178589 938.364746,1215.784302   C899.272522,1221.163696 860.097656,1225.943481 821.008179,1231.341919   C780.101440,1236.991089 739.206543,1242.760376 698.391541,1249.031006   C656.402649,1255.481934 614.570923,1262.873779 573.518677,1274.066284   C571.230103,1274.690186 568.987732,1275.483643 566.723877,1276.198242   C566.702576,1276.708984 566.681274,1277.219727 566.659973,1277.730469   C571.420105,1279.513062 576.043213,1282.000732 580.963928,1282.956665   C602.852295,1287.208496 624.701599,1291.999878 646.792480,1294.805176   C706.091675,1302.335693 765.611694,1308.174805 824.845764,1316.157227   C877.809631,1323.294678 930.551453,1332.138184 983.288696,1340.849609   C993.546265,1342.544067 1002.926758,1343.425415 1012.606323,1337.161377  z"
   id="path7"
   style="fill:#1e88e5;fill-opacity:1" />
<path
   fill="#4C4C4C"
   opacity="1.000000"
   stroke="none"
   d=" M1060.724121,1516.147705   C1058.041260,1507.614624 1062.554810,1500.832153 1066.669189,1494.148926   C1068.967285,1490.416016 1072.308472,1487.325562 1075.515381,1483.899414   C1072.326660,1491.007324 1068.709595,1498.117798 1065.318237,1505.334106   C1063.684448,1508.810303 1062.475952,1512.486084 1060.724121,1516.147705  z"
   id="path8" />
<path
   fill="#6A6A6A"
   opacity="1.000000"
   stroke="none"
   d=" M1719.245972,521.793457   C1719.462646,521.225891 1720.000854,520.460449 1720.702881,520.255005   C1731.601074,517.065918 1742.520264,513.949341 1753.721436,510.935211   C1742.553345,514.655029 1731.098511,518.255615 1719.245972,521.793457  z"
   id="path9" />
<path
   fill="#484848"
   opacity="1.000000"
   stroke="none"
   d=" M1707.307861,525.577271   C1708.316772,524.801208 1709.593262,524.210327 1711.586060,523.692078   C1712.546509,523.851379 1712.790649,523.938171 1713.034912,524.025024   C1711.215088,524.604187 1709.395264,525.183350 1707.307861,525.577271  z"
   id="path10" />
<path
   fill="#484848"
   opacity="1.000000"
   stroke="none"
   d=" M1700.251709,527.532471   C1700.864746,526.928894 1701.696045,526.527710 1702.873047,526.263062   C1702.302490,526.844727 1701.386230,527.289795 1700.251709,527.532471  z"
   id="path11" />
<path
   fill="#6A6A6A"
   opacity="1.000000"
   stroke="none"
   d=" M1713.245605,523.936829   C1712.790649,523.938171 1712.546509,523.851379 1711.944946,523.609375   C1712.312866,523.237183 1713.038086,523.020325 1713.896851,523.005737   C1713.992065,523.558594 1713.800781,523.772156 1713.245605,523.936829  z"
   id="path12" />
<path
   fill="#AAAAAA"
   opacity="1.000000"
   stroke="none"
   d=" M1706.128662,724.981934   C1706.205811,724.949646 1706.384155,724.749023 1706.627441,724.337585   C1706.787720,724.545593 1706.633545,724.774475 1706.128662,724.981934  z"
   id="path13" />
<path
   fill="#AAAAAA"
   opacity="1.000000"
   stroke="none"
   d=" M222.988358,797.282104   C223.277740,797.157349 223.656982,797.290466 224.010437,797.760376   C223.682510,797.911438 223.380371,797.725769 222.988358,797.282104  z"
   id="path14" />
<path
   fill="#AAAAAA"
   opacity="1.000000"
   stroke="none"
   d=" M223.988480,798.257935   C224.234955,798.132812 224.567047,798.247192 224.915619,798.651733   C224.646103,798.793762 224.360092,798.645569 223.988480,798.257935  z"
   id="path15" />
<path
   fill="#AAAAAA"
   opacity="1.000000"
   stroke="none"
   d=" M1399.190430,1255.296875   C1399.109253,1255.115723 1399.215942,1254.708618 1399.621094,1254.198120   C1399.739258,1254.420166 1399.558716,1254.745605 1399.190430,1255.296875  z"
   id="path16" />
<path
   fill="#AAAAAA"
   opacity="1.000000"
   stroke="none"
   d=" M518.977417,1301.268555   C519.223572,1301.134521 519.546204,1301.242920 519.891968,1301.639038   C519.628052,1301.788208 519.341003,1301.649536 518.977417,1301.268555  z"
   id="path17" />
<path
   fill="#000000"
   opacity="1.000000"
   stroke="none"
   d=" M927.162720,860.161682   C868.269592,871.979004 809.807861,883.769653 751.312134,895.389038   C748.347107,895.977966 745.033325,895.397888 741.975098,894.845947   C647.024536,877.709351 552.484497,858.602234 458.926361,834.912720   C409.650696,822.435730 360.540466,809.269104 312.900482,791.356079   C299.233521,786.217224 286.228546,779.311707 272.955872,773.139221   C271.548553,772.484741 270.383453,771.309387 268.048187,769.602539   C272.410889,768.123901 275.565979,766.721741 278.869507,765.985352   C321.137787,756.562805 363.199097,746.003418 405.755310,738.120789   C522.197876,716.551880 638.734985,695.440796 755.463989,675.490173   C826.697388,663.315430 898.327271,653.435791 969.830261,642.871826   C1020.735901,635.351013 1071.723389,628.383484 1122.680664,621.213623   C1168.030640,614.832764 1213.349854,608.204224 1258.779907,602.452332   C1266.938354,601.419373 1275.633545,603.733337 1283.971069,605.148743   C1348.009277,616.019897 1412.125488,626.480225 1476.002930,638.234131   C1518.111572,645.982422 1559.971436,655.406006 1600.040405,670.968079   C1611.574097,675.447510 1622.228149,682.219177 1633.190430,688.116333   C1635.032104,689.106995 1636.536011,690.871826 1637.943848,692.497253   C1644.078369,699.578918 1644.330322,707.228210 1637.155151,713.201416   C1630.718018,718.560181 1623.407227,723.294495 1615.768677,726.708862   C1588.076904,739.086914 1558.749268,746.405334 1529.072510,751.897583   C1438.826660,768.599548 1348.516724,784.961060 1258.170898,801.115051   C1185.040771,814.190918 1111.802368,826.660706 1038.651855,839.624146   C1001.584900,846.193054 964.605896,853.258972 927.162720,860.161682  z"
   id="path18"
   style="fill:#0d3c81;fill-opacity:1" />
<path
   fill="#000000"
   opacity="1.000000"
   stroke="none"
   d=" M1012.260498,1337.315186   C1002.926758,1343.425415 993.546265,1342.544067 983.288696,1340.849609   C930.551453,1332.138184 877.809631,1323.294678 824.845764,1316.157227   C765.611694,1308.174805 706.091675,1302.335693 646.792480,1294.805176   C624.701599,1291.999878 602.852295,1287.208496 580.963928,1282.956665   C576.043213,1282.000732 571.420105,1279.513062 566.659973,1277.730469   C566.681274,1277.219727 566.702576,1276.708984 566.723877,1276.198242   C568.987732,1275.483643 571.230103,1274.690186 573.518677,1274.066284   C614.570923,1262.873779 656.402649,1255.481934 698.391541,1249.031006   C739.206543,1242.760376 780.101440,1236.991089 821.008179,1231.341919   C860.097656,1225.943481 899.272522,1221.163696 938.364746,1215.784302   C986.369080,1209.178589 1034.366577,1202.500732 1082.291260,1195.346191   C1118.854004,1189.887573 1155.269043,1183.442749 1191.824219,1177.929443   C1198.082397,1176.985474 1204.739014,1178.276855 1211.168823,1178.945679   C1241.531738,1182.104126 1271.751343,1186.317383 1300.774414,1196.173706   C1310.626587,1199.519531 1320.394531,1203.904297 1329.173340,1209.443115   C1344.023560,1218.812500 1343.467285,1229.384277 1328.902832,1239.242676   C1320.186523,1245.142456 1310.555786,1248.573730 1300.445923,1251.020752   C1264.823730,1259.643066 1229.120361,1267.951172 1193.621704,1277.056763   C1136.763672,1291.640991 1080.805298,1309.118408 1026.346802,1331.168701   C1021.716797,1333.043213 1017.184143,1335.158081 1012.260498,1337.315186  z"
   id="path19"
   style="fill:#0d3c81;fill-opacity:1" />
</svg>
